<mxfile host="app.diagrams.net" modified="2024-02-06T10:53:26.914Z" agent="Mozilla/5.0 (X11; Ubuntu; Linux x86_64; rv:122.0) Gecko/20100101 Firefox/122.0" etag="kEeVeSkhVoVseSwS84L8" version="21.6.6" type="device">
  <diagram name="Page-1" id="y4iI3hgSICkqScUBPNSd">
    <mxGraphModel dx="844" dy="436" grid="1" gridSize="10" guides="1" tooltips="1" connect="1" arrows="1" fold="1" page="1" pageScale="1" pageWidth="850" pageHeight="1100" math="0" shadow="0">
      <root>
        <mxCell id="0" />
        <mxCell id="1" parent="0" />
        <mxCell id="SmNu8NIOf34_sHcW9DfF-14" value="" style="rounded=0;whiteSpace=wrap;html=1;fillColor=#dae8fc;strokeColor=#6c8ebf;dashed=1;" parent="1" vertex="1">
          <mxGeometry x="149" y="36" width="600" height="210" as="geometry" />
        </mxCell>
        <mxCell id="SmNu8NIOf34_sHcW9DfF-12" value="" style="rounded=0;whiteSpace=wrap;html=1;fillColor=#fff2cc;strokeColor=#d6b656;dashed=1;" parent="1" vertex="1">
          <mxGeometry x="490" y="250" width="260" height="230" as="geometry" />
        </mxCell>
        <mxCell id="SmNu8NIOf34_sHcW9DfF-10" value="" style="rounded=0;whiteSpace=wrap;html=1;fillColor=#f5f5f5;fontColor=#333333;strokeColor=#666666;dashed=1;" parent="1" vertex="1">
          <mxGeometry x="150" y="253" width="236" height="227" as="geometry" />
        </mxCell>
        <mxCell id="1q6Hv9pTBFsrhWVItdsr-13" value="" style="edgeStyle=orthogonalEdgeStyle;rounded=0;orthogonalLoop=1;jettySize=auto;html=1;" parent="1" source="1q6Hv9pTBFsrhWVItdsr-15" target="1q6Hv9pTBFsrhWVItdsr-12" edge="1">
          <mxGeometry relative="1" as="geometry" />
        </mxCell>
        <mxCell id="SmNu8NIOf34_sHcW9DfF-2" value="" style="edgeStyle=orthogonalEdgeStyle;rounded=0;orthogonalLoop=1;jettySize=auto;html=1;" parent="1" source="1q6Hv9pTBFsrhWVItdsr-1" target="SmNu8NIOf34_sHcW9DfF-1" edge="1">
          <mxGeometry relative="1" as="geometry" />
        </mxCell>
        <mxCell id="1q6Hv9pTBFsrhWVItdsr-1" value="&lt;div&gt;PC 1&lt;/div&gt;&lt;div&gt;1.20.30.10/28&lt;/div&gt;&lt;div&gt;&lt;br&gt;&lt;/div&gt;&lt;div&gt;192.168.100.10/24&lt;/div&gt;&lt;div&gt;&lt;br&gt;&lt;/div&gt;&lt;div&gt;172.16.100.10/24&lt;br&gt;&lt;/div&gt;" style="rounded=0;whiteSpace=wrap;html=1;" parent="1" vertex="1">
          <mxGeometry x="160" y="270" width="120" height="90" as="geometry" />
        </mxCell>
        <mxCell id="1q6Hv9pTBFsrhWVItdsr-4" value="" style="edgeStyle=orthogonalEdgeStyle;rounded=0;orthogonalLoop=1;jettySize=auto;html=1;" parent="1" source="1q6Hv9pTBFsrhWVItdsr-1" target="1q6Hv9pTBFsrhWVItdsr-3" edge="1">
          <mxGeometry relative="1" as="geometry">
            <mxPoint x="440" y="300" as="targetPoint" />
            <mxPoint x="250" y="300" as="sourcePoint" />
          </mxGeometry>
        </mxCell>
        <mxCell id="1q6Hv9pTBFsrhWVItdsr-7" value="" style="edgeStyle=orthogonalEdgeStyle;rounded=0;orthogonalLoop=1;jettySize=auto;html=1;" parent="1" source="1q6Hv9pTBFsrhWVItdsr-3" target="1q6Hv9pTBFsrhWVItdsr-6" edge="1">
          <mxGeometry relative="1" as="geometry" />
        </mxCell>
        <mxCell id="1q6Hv9pTBFsrhWVItdsr-3" value="Switch 1" style="whiteSpace=wrap;html=1;aspect=fixed;" parent="1" vertex="1">
          <mxGeometry x="300" y="275" width="80" height="80" as="geometry" />
        </mxCell>
        <mxCell id="1q6Hv9pTBFsrhWVItdsr-9" value="" style="edgeStyle=orthogonalEdgeStyle;rounded=0;orthogonalLoop=1;jettySize=auto;html=1;" parent="1" source="1q6Hv9pTBFsrhWVItdsr-11" target="1q6Hv9pTBFsrhWVItdsr-8" edge="1">
          <mxGeometry relative="1" as="geometry" />
        </mxCell>
        <mxCell id="1q6Hv9pTBFsrhWVItdsr-6" value="Router &lt;strike&gt;NAT&lt;/strike&gt;&lt;br&gt;192.168.100.1" style="ellipse;whiteSpace=wrap;html=1;" parent="1" vertex="1">
          <mxGeometry x="400" y="275" width="80" height="80" as="geometry" />
        </mxCell>
        <mxCell id="SmNu8NIOf34_sHcW9DfF-6" value="" style="edgeStyle=orthogonalEdgeStyle;rounded=0;orthogonalLoop=1;jettySize=auto;html=1;" parent="1" source="1q6Hv9pTBFsrhWVItdsr-8" target="SmNu8NIOf34_sHcW9DfF-5" edge="1">
          <mxGeometry relative="1" as="geometry" />
        </mxCell>
        <mxCell id="1q6Hv9pTBFsrhWVItdsr-8" value="&lt;div&gt;PC 2&lt;/div&gt;&lt;div&gt;2.40.60.20/27&lt;/div&gt;&lt;div&gt;&lt;br&gt;&lt;/div&gt;&lt;div&gt;100.0.200.20/24&lt;br&gt;&lt;/div&gt;&lt;div&gt;&lt;br&gt;&lt;/div&gt;&lt;div&gt;200.0.100.20/24&lt;br&gt;&lt;/div&gt;" style="whiteSpace=wrap;html=1;" parent="1" vertex="1">
          <mxGeometry x="620" y="270" width="120" height="90" as="geometry" />
        </mxCell>
        <mxCell id="1q6Hv9pTBFsrhWVItdsr-10" value="" style="edgeStyle=orthogonalEdgeStyle;rounded=0;orthogonalLoop=1;jettySize=auto;html=1;" parent="1" source="1q6Hv9pTBFsrhWVItdsr-6" target="1q6Hv9pTBFsrhWVItdsr-11" edge="1">
          <mxGeometry relative="1" as="geometry">
            <mxPoint x="510" y="300" as="sourcePoint" />
            <mxPoint x="570" y="300" as="targetPoint" />
          </mxGeometry>
        </mxCell>
        <mxCell id="1q6Hv9pTBFsrhWVItdsr-11" value="Switch 4" style="whiteSpace=wrap;html=1;aspect=fixed;" parent="1" vertex="1">
          <mxGeometry x="500" y="275" width="80" height="80" as="geometry" />
        </mxCell>
        <mxCell id="1q6Hv9pTBFsrhWVItdsr-16" style="edgeStyle=orthogonalEdgeStyle;rounded=0;orthogonalLoop=1;jettySize=auto;html=1;entryX=0.5;entryY=1;entryDx=0;entryDy=0;" parent="1" source="1q6Hv9pTBFsrhWVItdsr-18" target="1q6Hv9pTBFsrhWVItdsr-8" edge="1">
          <mxGeometry relative="1" as="geometry" />
        </mxCell>
        <mxCell id="1q6Hv9pTBFsrhWVItdsr-12" value="&lt;div&gt;Router NAT&lt;br&gt;&lt;/div&gt;&lt;div&gt;172.16.100.1&lt;br&gt;&lt;/div&gt;" style="ellipse;whiteSpace=wrap;html=1;rounded=0;" parent="1" vertex="1">
          <mxGeometry x="400" y="390" width="80" height="80" as="geometry" />
        </mxCell>
        <mxCell id="1q6Hv9pTBFsrhWVItdsr-14" value="" style="edgeStyle=orthogonalEdgeStyle;rounded=0;orthogonalLoop=1;jettySize=auto;html=1;" parent="1" source="1q6Hv9pTBFsrhWVItdsr-1" target="1q6Hv9pTBFsrhWVItdsr-15" edge="1">
          <mxGeometry relative="1" as="geometry">
            <mxPoint x="220" y="300" as="sourcePoint" />
            <mxPoint x="440" y="420" as="targetPoint" />
          </mxGeometry>
        </mxCell>
        <mxCell id="1q6Hv9pTBFsrhWVItdsr-15" value="Switch 2" style="whiteSpace=wrap;html=1;aspect=fixed;" parent="1" vertex="1">
          <mxGeometry x="180" y="390" width="80" height="80" as="geometry" />
        </mxCell>
        <mxCell id="1q6Hv9pTBFsrhWVItdsr-17" value="" style="edgeStyle=orthogonalEdgeStyle;rounded=0;orthogonalLoop=1;jettySize=auto;html=1;entryX=0;entryY=0.5;entryDx=0;entryDy=0;" parent="1" source="1q6Hv9pTBFsrhWVItdsr-12" target="1q6Hv9pTBFsrhWVItdsr-18" edge="1">
          <mxGeometry relative="1" as="geometry">
            <mxPoint x="480" y="460" as="sourcePoint" />
            <mxPoint x="710" y="330" as="targetPoint" />
          </mxGeometry>
        </mxCell>
        <mxCell id="1q6Hv9pTBFsrhWVItdsr-18" value="Switch 5" style="whiteSpace=wrap;html=1;aspect=fixed;" parent="1" vertex="1">
          <mxGeometry x="640" y="390" width="80" height="80" as="geometry" />
        </mxCell>
        <mxCell id="SmNu8NIOf34_sHcW9DfF-4" value="" style="edgeStyle=orthogonalEdgeStyle;rounded=0;orthogonalLoop=1;jettySize=auto;html=1;" parent="1" source="SmNu8NIOf34_sHcW9DfF-1" target="SmNu8NIOf34_sHcW9DfF-3" edge="1">
          <mxGeometry relative="1" as="geometry" />
        </mxCell>
        <mxCell id="SmNu8NIOf34_sHcW9DfF-1" value="Switch 3" style="whiteSpace=wrap;html=1;aspect=fixed;" parent="1" vertex="1">
          <mxGeometry x="180" y="160" width="80" height="80" as="geometry" />
        </mxCell>
        <mxCell id="HeIuiyx35pgXJjmiXsRd-1" value="&lt;div&gt;Subnet 1.20.50.0/24&lt;/div&gt;Emulate routeable internet" style="edgeStyle=orthogonalEdgeStyle;rounded=0;orthogonalLoop=1;jettySize=auto;html=1;entryX=0;entryY=0.5;entryDx=0;entryDy=0;" edge="1" parent="1" source="SmNu8NIOf34_sHcW9DfF-3" target="SmNu8NIOf34_sHcW9DfF-7">
          <mxGeometry relative="1" as="geometry" />
        </mxCell>
        <mxCell id="SmNu8NIOf34_sHcW9DfF-3" value="NAT PC1&lt;br&gt;1.20.30.1/28" style="ellipse;whiteSpace=wrap;html=1;" parent="1" vertex="1">
          <mxGeometry x="180" y="50" width="80" height="80" as="geometry" />
        </mxCell>
        <mxCell id="SmNu8NIOf34_sHcW9DfF-8" value="" style="edgeStyle=orthogonalEdgeStyle;rounded=0;orthogonalLoop=1;jettySize=auto;html=1;" parent="1" source="SmNu8NIOf34_sHcW9DfF-5" target="SmNu8NIOf34_sHcW9DfF-7" edge="1">
          <mxGeometry relative="1" as="geometry" />
        </mxCell>
        <mxCell id="SmNu8NIOf34_sHcW9DfF-5" value="Switch 6" style="whiteSpace=wrap;html=1;aspect=fixed;" parent="1" vertex="1">
          <mxGeometry x="640" y="160" width="80" height="80" as="geometry" />
        </mxCell>
        <mxCell id="SmNu8NIOf34_sHcW9DfF-7" value="NAT PC2&lt;br&gt;2.40.60.1/27" style="ellipse;whiteSpace=wrap;html=1;" parent="1" vertex="1">
          <mxGeometry x="640" y="50" width="80" height="80" as="geometry" />
        </mxCell>
        <mxCell id="SmNu8NIOf34_sHcW9DfF-11" value="Lokales Netzwerk" style="text;html=1;strokeColor=none;fillColor=none;align=center;verticalAlign=middle;whiteSpace=wrap;rounded=0;" parent="1" vertex="1">
          <mxGeometry x="310" y="360" width="60" height="30" as="geometry" />
        </mxCell>
        <mxCell id="SmNu8NIOf34_sHcW9DfF-13" value="Emuliertes Internet" style="text;html=1;strokeColor=none;fillColor=none;align=center;verticalAlign=middle;whiteSpace=wrap;rounded=0;" parent="1" vertex="1">
          <mxGeometry x="520" y="360" width="60" height="30" as="geometry" />
        </mxCell>
        <mxCell id="SmNu8NIOf34_sHcW9DfF-15" value="Mininet Internet Zugang / Cellular" style="text;html=1;strokeColor=none;fillColor=none;align=center;verticalAlign=middle;whiteSpace=wrap;rounded=0;" parent="1" vertex="1">
          <mxGeometry x="425" y="150" width="60" height="30" as="geometry" />
        </mxCell>
      </root>
    </mxGraphModel>
  </diagram>
</mxfile>
